<?xml version="1.0" encoding="UTF-8" standalone="no"?><svg xmlns="http://www.w3.org/2000/svg" xmlns:xlink="http://www.w3.org/1999/xlink" contentStyleType="text/css" height="1205px" preserveAspectRatio="none" style="width:1185px;height:1205px;background:#FFFFFF;" version="1.1" viewBox="0 0 1185 1205" width="1185px" zoomAndPan="magnify"><defs/><g><!--MD5=[4851e5193cf5e7abdec7b18b3bca50f8]
cluster Console--><g id="cluster_Console"><path d="M8.5,6 L67.5,6 A3.75,3.75 0 0 1 70,8.5 L77,29.6094 L704.5,29.6094 A2.5,2.5 0 0 1 707,32.1094 L707,346.5 A2.5,2.5 0 0 1 704.5,349 L8.5,349 A2.5,2.5 0 0 1 6,346.5 L6,8.5 A2.5,2.5 0 0 1 8.5,6 " fill="none" style="stroke:#000000;stroke-width:1.5;"/><line style="stroke:#000000;stroke-width:1.5;" x1="6" x2="77" y1="29.6094" y2="29.6094"/><text fill="#000000" font-family="sans-serif" font-size="14" font-weight="bold" lengthAdjust="spacing" textLength="58" x="10" y="22.5332">Console</text></g><!--MD5=[121a8bf1197281ab89ed693fab589f94]
cluster Domain--><g id="cluster_Domain"><path d="M290,373 L343,373 A3.75,3.75 0 0 1 345.5,375.5 L352.5,396.6094 L1175.5,396.6094 A2.5,2.5 0 0 1 1178,399.1094 L1178,1195.5 A2.5,2.5 0 0 1 1175.5,1198 L290,1198 A2.5,2.5 0 0 1 287.5,1195.5 L287.5,375.5 A2.5,2.5 0 0 1 290,373 " fill="none" style="stroke:#000000;stroke-width:1.5;"/><line style="stroke:#000000;stroke-width:1.5;" x1="287.5" x2="352.5" y1="396.6094" y2="396.6094"/><text fill="#000000" font-family="sans-serif" font-size="14" font-weight="bold" lengthAdjust="spacing" textLength="52" x="291.5" y="389.5332">Domain</text></g><!--MD5=[175f95e045c1a44aed0b30df3abe0e5c]
class Program--><g id="elem_Program"><rect codeLine="5" fill="#F1F1F1" height="83.2188" id="Program" rx="2.5" ry="2.5" style="stroke:#181818;stroke-width:0.5;" width="162" x="22" y="172.5"/><ellipse cx="71.75" cy="188.5" fill="#ADD1B2" rx="11" ry="11" style="stroke:#181818;stroke-width:1.0;"/><path d="M74.5156,184.375 Q74.6719,184.1563 74.8594,184.0469 Q75.0469,183.9375 75.2656,183.9375 Q75.6406,183.9375 75.875,184.2031 Q76.1094,184.4531 76.1094,185.0625 L76.1094,186.5156 Q76.1094,187.125 75.875,187.3906 Q75.6406,187.6563 75.2656,187.6563 Q74.9219,187.6563 74.7188,187.4531 Q74.5156,187.2656 74.4063,186.75 Q74.3594,186.3906 74.1719,186.2031 Q73.8438,185.8281 73.2344,185.6094 Q72.625,185.3906 72,185.3906 Q71.2344,185.3906 70.5938,185.7188 Q69.9688,186.0469 69.4688,186.7969 Q68.9844,187.5469 68.9844,188.5781 L68.9844,189.6719 Q68.9844,190.9063 69.875,191.7344 Q70.7656,192.5469 72.3594,192.5469 Q73.2969,192.5469 73.9531,192.2969 Q74.3438,192.1406 74.7656,191.7031 Q75.0313,191.4375 75.1719,191.3594 Q75.3281,191.2813 75.5313,191.2813 Q75.8594,191.2813 76.1094,191.5469 Q76.375,191.7969 76.375,192.1406 Q76.375,192.4844 76.0313,192.8906 Q75.5313,193.4688 74.7344,193.7969 Q73.6563,194.25 72.3594,194.25 Q70.8438,194.25 69.6406,193.625 Q68.6563,193.125 67.9688,192.0625 Q67.2813,190.9844 67.2813,189.7031 L67.2813,188.5469 Q67.2813,187.2188 67.8906,186.0781 Q68.5156,184.9219 69.6094,184.3125 Q70.7031,183.6875 71.9375,183.6875 Q72.6719,183.6875 73.3125,183.8594 Q73.9688,184.0156 74.5156,184.375 Z " fill="#000000"/><text fill="#000000" font-family="sans-serif" font-size="14" lengthAdjust="spacing" textLength="54" x="92.25" y="194.2285">Program</text><line style="stroke:#181818;stroke-width:0.5;" x1="23" x2="183" y1="204.5" y2="204.5"/><rect fill="none" height="6" style="stroke:#C82930;stroke-width:1.0;" width="6" x="30" y="215.8047"/><text fill="#000000" font-family="sans-serif" font-size="14" lengthAdjust="spacing" textLength="136" x="42" y="223.0332">container : IContainer</text><rect fill="none" height="6" style="stroke:#C82930;stroke-width:1.0;" width="6" x="30" y="233.4141"/><text fill="#000000" font-family="sans-serif" font-size="14" lengthAdjust="spacing" textLength="83" x="42" y="240.6426">app : Runner</text><line style="stroke:#181818;stroke-width:0.5;" x1="23" x2="183" y1="247.7188" y2="247.7188"/></g><!--MD5=[e8fa765dc96a06d62c2ec0d529c4c5d2]
class AutofacConfig--><g id="elem_AutofacConfig"><rect codeLine="10" fill="#F1F1F1" height="65.6094" id="AutofacConfig" rx="2.5" ry="2.5" style="stroke:#181818;stroke-width:0.5;" width="175" x="380" y="267"/><ellipse cx="419.3" cy="283" fill="#ADD1B2" rx="11" ry="11" style="stroke:#181818;stroke-width:1.0;"/><path d="M422.0656,278.875 Q422.2219,278.6563 422.4094,278.5469 Q422.5969,278.4375 422.8156,278.4375 Q423.1906,278.4375 423.425,278.7031 Q423.6594,278.9531 423.6594,279.5625 L423.6594,281.0156 Q423.6594,281.625 423.425,281.8906 Q423.1906,282.1563 422.8156,282.1563 Q422.4719,282.1563 422.2688,281.9531 Q422.0656,281.7656 421.9563,281.25 Q421.9094,280.8906 421.7219,280.7031 Q421.3938,280.3281 420.7844,280.1094 Q420.175,279.8906 419.55,279.8906 Q418.7844,279.8906 418.1438,280.2188 Q417.5188,280.5469 417.0188,281.2969 Q416.5344,282.0469 416.5344,283.0781 L416.5344,284.1719 Q416.5344,285.4063 417.425,286.2344 Q418.3156,287.0469 419.9094,287.0469 Q420.8469,287.0469 421.5031,286.7969 Q421.8938,286.6406 422.3156,286.2031 Q422.5813,285.9375 422.7219,285.8594 Q422.8781,285.7813 423.0813,285.7813 Q423.4094,285.7813 423.6594,286.0469 Q423.925,286.2969 423.925,286.6406 Q423.925,286.9844 423.5813,287.3906 Q423.0813,287.9688 422.2844,288.2969 Q421.2063,288.75 419.9094,288.75 Q418.3938,288.75 417.1906,288.125 Q416.2063,287.625 415.5188,286.5625 Q414.8313,285.4844 414.8313,284.2031 L414.8313,283.0469 Q414.8313,281.7188 415.4406,280.5781 Q416.0656,279.4219 417.1594,278.8125 Q418.2531,278.1875 419.4875,278.1875 Q420.2219,278.1875 420.8625,278.3594 Q421.5188,278.5156 422.0656,278.875 Z " fill="#000000"/><text fill="#000000" font-family="sans-serif" font-size="14" lengthAdjust="spacing" textLength="89" x="438.7" y="288.7285">AutofacConfig</text><line style="stroke:#181818;stroke-width:0.5;" x1="381" x2="554" y1="299" y2="299"/><line style="stroke:#181818;stroke-width:0.5;" x1="381" x2="554" y1="307" y2="307"/><ellipse cx="391" cy="321.3047" fill="#84BE84" rx="3" ry="3" style="stroke:#038048;stroke-width:1.0;"/><text fill="#000000" font-family="sans-serif" font-size="14" lengthAdjust="spacing" textLength="149" x="400" y="325.5332">Configure() : IContainer</text></g><!--MD5=[cd45b77dafe01d3c8a27bbc3fefc2e35]
class Runner--><g id="elem_Runner"><rect codeLine="14" fill="#F1F1F1" height="188.875" id="Runner" rx="2.5" ry="2.5" style="stroke:#181818;stroke-width:0.5;" width="447" x="244" y="42.5"/><ellipse cx="439.75" cy="58.5" fill="#ADD1B2" rx="11" ry="11" style="stroke:#181818;stroke-width:1.0;"/><path d="M442.5156,54.375 Q442.6719,54.1563 442.8594,54.0469 Q443.0469,53.9375 443.2656,53.9375 Q443.6406,53.9375 443.875,54.2031 Q444.1094,54.4531 444.1094,55.0625 L444.1094,56.5156 Q444.1094,57.125 443.875,57.3906 Q443.6406,57.6563 443.2656,57.6563 Q442.9219,57.6563 442.7188,57.4531 Q442.5156,57.2656 442.4063,56.75 Q442.3594,56.3906 442.1719,56.2031 Q441.8438,55.8281 441.2344,55.6094 Q440.625,55.3906 440,55.3906 Q439.2344,55.3906 438.5938,55.7188 Q437.9688,56.0469 437.4688,56.7969 Q436.9844,57.5469 436.9844,58.5781 L436.9844,59.6719 Q436.9844,60.9063 437.875,61.7344 Q438.7656,62.5469 440.3594,62.5469 Q441.2969,62.5469 441.9531,62.2969 Q442.3438,62.1406 442.7656,61.7031 Q443.0313,61.4375 443.1719,61.3594 Q443.3281,61.2813 443.5313,61.2813 Q443.8594,61.2813 444.1094,61.5469 Q444.375,61.7969 444.375,62.1406 Q444.375,62.4844 444.0313,62.8906 Q443.5313,63.4688 442.7344,63.7969 Q441.6563,64.25 440.3594,64.25 Q438.8438,64.25 437.6406,63.625 Q436.6563,63.125 435.9688,62.0625 Q435.2813,60.9844 435.2813,59.7031 L435.2813,58.5469 Q435.2813,57.2188 435.8906,56.0781 Q436.5156,54.9219 437.6094,54.3125 Q438.7031,53.6875 439.9375,53.6875 Q440.6719,53.6875 441.3125,53.8594 Q441.9688,54.0156 442.5156,54.375 Z " fill="#000000"/><text fill="#000000" font-family="sans-serif" font-size="14" lengthAdjust="spacing" textLength="47" x="460.25" y="64.2285">Runner</text><line style="stroke:#181818;stroke-width:0.5;" x1="245" x2="690" y1="74.5" y2="74.5"/><rect fill="none" height="6" style="stroke:#C82930;stroke-width:1.0;" width="6" x="252" y="85.8047"/><text fill="#000000" font-family="sans-serif" font-size="14" lengthAdjust="spacing" textLength="144" x="264" y="93.0332">_container : IContainer</text><rect fill="none" height="6" style="stroke:#C82930;stroke-width:1.0;" width="6" x="252" y="103.4141"/><text fill="#000000" font-family="sans-serif" font-size="14" lengthAdjust="spacing" textLength="118" x="264" y="110.6426">_inputfolder: string</text><line style="stroke:#181818;stroke-width:0.5;" x1="245" x2="690" y1="117.7188" y2="117.7188"/><ellipse cx="255" cy="132.0234" fill="#84BE84" rx="3" ry="3" style="stroke:#038048;stroke-width:1.0;"/><text fill="#000000" font-family="sans-serif" font-size="14" lengthAdjust="spacing" textLength="152" x="264" y="136.252">ExecuteProgram() : void</text><rect fill="#F24D5C" height="6" style="stroke:#C82930;stroke-width:1.0;" width="6" x="252" y="146.6328"/><text fill="#000000" font-family="sans-serif" font-size="14" lengthAdjust="spacing" textLength="300" x="264" y="153.8613">DisplayAvailableVmFiles(vmFiles: string[]) : void</text><rect fill="#F24D5C" height="6" style="stroke:#C82930;stroke-width:1.0;" width="6" x="252" y="164.2422"/><text fill="#000000" font-family="sans-serif" font-size="14" lengthAdjust="spacing" textLength="421" x="264" y="171.4707">TryGetUserSelection(maxIndex: int, out int selectedFileIndex) : bool</text><rect fill="#F24D5C" height="6" style="stroke:#C82930;stroke-width:1.0;" width="6" x="252" y="181.8516"/><text fill="#000000" font-family="sans-serif" font-size="14" lengthAdjust="spacing" textLength="240" x="264" y="189.0801">TranslateVmFile(filepath: string) : void</text><rect fill="#F24D5C" height="6" style="stroke:#C82930;stroke-width:1.0;" width="6" x="252" y="199.4609"/><text fill="#000000" font-family="sans-serif" font-size="14" lengthAdjust="spacing" textLength="372" x="264" y="206.6895">DisplayTranslationCompleteMessage(filePath: string) : void</text><rect fill="#F24D5C" height="6" style="stroke:#C82930;stroke-width:1.0;" width="6" x="252" y="217.0703"/><text fill="#000000" font-family="sans-serif" font-size="14" lengthAdjust="spacing" textLength="232" x="264" y="224.2988">WaitForUserInputToContinue() : void</text></g><!--MD5=[c410b497381561a9283729bb4d059fee]
class IBuilder--><g id="elem_IBuilder"><rect codeLine="29" fill="#F1F1F1" height="83.2188" id="IBuilder" rx="2.5" ry="2.5" style="stroke:#181818;stroke-width:0.5;" width="328" x="792.5" y="980.5"/><ellipse cx="928.25" cy="996.5" fill="#B4A7E5" rx="11" ry="11" style="stroke:#181818;stroke-width:1.0;"/><path d="M929.2031,993.1406 L929.2031,999.7969 L930.9219,999.7969 Q931.5313,999.7969 931.7969,1000.0313 Q932.0625,1000.2656 932.0625,1000.6563 Q932.0625,1001.0313 931.7969,1001.2656 Q931.5313,1001.5 930.9219,1001.5 L925.7813,1001.5 Q925.1719,1001.5 924.9063,1001.2656 Q924.6406,1001.0313 924.6406,1000.6406 Q924.6406,1000.2656 924.9063,1000.0313 Q925.1719,999.7969 925.7813,999.7969 L927.5,999.7969 L927.5,993.1406 L925.7813,993.1406 Q925.1719,993.1406 924.9063,992.9063 Q924.6406,992.6719 924.6406,992.2813 Q924.6406,991.9063 924.9063,991.6719 Q925.1719,991.4375 925.7813,991.4375 L930.9219,991.4375 Q931.5313,991.4375 931.7969,991.6719 Q932.0625,991.9063 932.0625,992.2813 Q932.0625,992.6719 931.7969,992.9063 Q931.5313,993.1406 930.9219,993.1406 L929.2031,993.1406 Z " fill="#000000"/><text fill="#000000" font-family="sans-serif" font-size="14" font-style="italic" lengthAdjust="spacing" textLength="48" x="948.75" y="1002.2285">IBuilder</text><line style="stroke:#181818;stroke-width:0.5;" x1="793.5" x2="1119.5" y1="1012.5" y2="1012.5"/><line style="stroke:#181818;stroke-width:0.5;" x1="793.5" x2="1119.5" y1="1020.5" y2="1020.5"/><ellipse cx="803.5" cy="1034.8047" fill="#84BE84" rx="3" ry="3" style="stroke:#038048;stroke-width:1.0;"/><text fill="#000000" font-family="sans-serif" font-size="14" lengthAdjust="spacing" textLength="302" x="812.5" y="1039.0332">BuildAssemblyCode(vmCode: List&lt;string&gt;): void</text><ellipse cx="803.5" cy="1052.4141" fill="#84BE84" rx="3" ry="3" style="stroke:#038048;stroke-width:1.0;"/><text fill="#000000" font-family="sans-serif" font-size="14" lengthAdjust="spacing" textLength="126" x="812.5" y="1056.6426">Build() : List&lt;string&gt;</text></g><!--MD5=[27582d6828af25c9d306bdf947cabf73]
class ParseHandlerBuilder--><g id="elem_ParseHandlerBuilder"><rect codeLine="34" fill="#F1F1F1" height="100.8281" id="ParseHandlerBuilder" rx="2.5" ry="2.5" style="stroke:#181818;stroke-width:0.5;" width="328" x="303.5" y="752.5"/><ellipse cx="398.25" cy="768.5" fill="#ADD1B2" rx="11" ry="11" style="stroke:#181818;stroke-width:1.0;"/><path d="M401.0156,764.375 Q401.1719,764.1563 401.3594,764.0469 Q401.5469,763.9375 401.7656,763.9375 Q402.1406,763.9375 402.375,764.2031 Q402.6094,764.4531 402.6094,765.0625 L402.6094,766.5156 Q402.6094,767.125 402.375,767.3906 Q402.1406,767.6563 401.7656,767.6563 Q401.4219,767.6563 401.2188,767.4531 Q401.0156,767.2656 400.9063,766.75 Q400.8594,766.3906 400.6719,766.2031 Q400.3438,765.8281 399.7344,765.6094 Q399.125,765.3906 398.5,765.3906 Q397.7344,765.3906 397.0938,765.7188 Q396.4688,766.0469 395.9688,766.7969 Q395.4844,767.5469 395.4844,768.5781 L395.4844,769.6719 Q395.4844,770.9063 396.375,771.7344 Q397.2656,772.5469 398.8594,772.5469 Q399.7969,772.5469 400.4531,772.2969 Q400.8438,772.1406 401.2656,771.7031 Q401.5313,771.4375 401.6719,771.3594 Q401.8281,771.2813 402.0313,771.2813 Q402.3594,771.2813 402.6094,771.5469 Q402.875,771.7969 402.875,772.1406 Q402.875,772.4844 402.5313,772.8906 Q402.0313,773.4688 401.2344,773.7969 Q400.1563,774.25 398.8594,774.25 Q397.3438,774.25 396.1406,773.625 Q395.1563,773.125 394.4688,772.0625 Q393.7813,770.9844 393.7813,769.7031 L393.7813,768.5469 Q393.7813,767.2188 394.3906,766.0781 Q395.0156,764.9219 396.1094,764.3125 Q397.2031,763.6875 398.4375,763.6875 Q399.1719,763.6875 399.8125,763.8594 Q400.4688,764.0156 401.0156,764.375 Z " fill="#000000"/><text fill="#000000" font-family="sans-serif" font-size="14" lengthAdjust="spacing" textLength="130" x="418.75" y="774.2285">ParseHandlerBuilder</text><line style="stroke:#181818;stroke-width:0.5;" x1="304.5" x2="630.5" y1="784.5" y2="784.5"/><rect fill="none" height="6" style="stroke:#C82930;stroke-width:1.0;" width="6" x="311.5" y="795.8047"/><text fill="#000000" font-family="sans-serif" font-size="14" lengthAdjust="spacing" textLength="141" x="323.5" y="803.0332">_vmCode: List&lt;string&gt;</text><line style="stroke:#181818;stroke-width:0.5;" x1="304.5" x2="630.5" y1="810.1094" y2="810.1094"/><ellipse cx="314.5" cy="824.4141" fill="#84BE84" rx="3" ry="3" style="stroke:#038048;stroke-width:1.0;"/><text fill="#000000" font-family="sans-serif" font-size="14" lengthAdjust="spacing" textLength="302" x="323.5" y="828.6426">BuildAssemblyCode(vmCode: List&lt;string&gt;): void</text><ellipse cx="314.5" cy="842.0234" fill="#84BE84" rx="3" ry="3" style="stroke:#038048;stroke-width:1.0;"/><text fill="#000000" font-family="sans-serif" font-size="14" lengthAdjust="spacing" textLength="126" x="323.5" y="846.252">Build() : List&lt;string&gt;</text></g><!--MD5=[a67a0efc8d28d38e6152389a9dc776b8]
class ParseHandler--><g id="elem_ParseHandler"><rect codeLine="41" fill="#F1F1F1" height="435.4063" id="ParseHandler" rx="2.5" ry="2.5" style="stroke:#181818;stroke-width:0.5;" width="411" x="751" y="510.5"/><ellipse cx="909.25" cy="526.5" fill="#ADD1B2" rx="11" ry="11" style="stroke:#181818;stroke-width:1.0;"/><path d="M912.0156,522.375 Q912.1719,522.1563 912.3594,522.0469 Q912.5469,521.9375 912.7656,521.9375 Q913.1406,521.9375 913.375,522.2031 Q913.6094,522.4531 913.6094,523.0625 L913.6094,524.5156 Q913.6094,525.125 913.375,525.3906 Q913.1406,525.6563 912.7656,525.6563 Q912.4219,525.6563 912.2188,525.4531 Q912.0156,525.2656 911.9063,524.75 Q911.8594,524.3906 911.6719,524.2031 Q911.3438,523.8281 910.7344,523.6094 Q910.125,523.3906 909.5,523.3906 Q908.7344,523.3906 908.0938,523.7188 Q907.4688,524.0469 906.9688,524.7969 Q906.4844,525.5469 906.4844,526.5781 L906.4844,527.6719 Q906.4844,528.9063 907.375,529.7344 Q908.2656,530.5469 909.8594,530.5469 Q910.7969,530.5469 911.4531,530.2969 Q911.8438,530.1406 912.2656,529.7031 Q912.5313,529.4375 912.6719,529.3594 Q912.8281,529.2813 913.0313,529.2813 Q913.3594,529.2813 913.6094,529.5469 Q913.875,529.7969 913.875,530.1406 Q913.875,530.4844 913.5313,530.8906 Q913.0313,531.4688 912.2344,531.7969 Q911.1563,532.25 909.8594,532.25 Q908.3438,532.25 907.1406,531.625 Q906.1563,531.125 905.4688,530.0625 Q904.7813,528.9844 904.7813,527.7031 L904.7813,526.5469 Q904.7813,525.2188 905.3906,524.0781 Q906.0156,522.9219 907.1094,522.3125 Q908.2031,521.6875 909.4375,521.6875 Q910.1719,521.6875 910.8125,521.8594 Q911.4688,522.0156 912.0156,522.375 Z " fill="#000000"/><text fill="#000000" font-family="sans-serif" font-size="14" lengthAdjust="spacing" textLength="86" x="929.75" y="532.2285">ParseHandler</text><line style="stroke:#181818;stroke-width:0.5;" x1="752" x2="1161" y1="542.5" y2="542.5"/><rect fill="none" height="6" style="stroke:#C82930;stroke-width:1.0;" width="6" x="759" y="553.8047"/><text fill="#000000" font-family="sans-serif" font-size="14" lengthAdjust="spacing" textLength="145" x="771" y="561.0332">_vmCode : List&lt;string&gt;</text><rect fill="none" height="6" style="stroke:#C82930;stroke-width:1.0;" width="6" x="759" y="571.4141"/><text fill="#000000" font-family="sans-serif" font-size="14" lengthAdjust="spacing" textLength="186" x="771" y="578.6426">_assemblyCode : List&lt;string&gt;</text><rect fill="none" height="6" style="stroke:#C82930;stroke-width:1.0;" width="6" x="759" y="589.0234"/><text fill="#000000" font-family="sans-serif" font-size="14" lengthAdjust="spacing" textLength="165" x="771" y="596.252">_constantSegment : string</text><rect fill="none" height="6" style="stroke:#C82930;stroke-width:1.0;" width="6" x="759" y="606.6328"/><text fill="#000000" font-family="sans-serif" font-size="14" lengthAdjust="spacing" textLength="140" x="771" y="613.8613">_localSegment : string</text><rect fill="none" height="6" style="stroke:#C82930;stroke-width:1.0;" width="6" x="759" y="624.2422"/><text fill="#000000" font-family="sans-serif" font-size="14" lengthAdjust="spacing" textLength="171" x="771" y="631.4707">_argumentSegment : string</text><rect fill="none" height="6" style="stroke:#C82930;stroke-width:1.0;" width="6" x="759" y="641.8516"/><text fill="#000000" font-family="sans-serif" font-size="14" lengthAdjust="spacing" textLength="133" x="771" y="649.0801">_thisSegment : string</text><rect fill="none" height="6" style="stroke:#C82930;stroke-width:1.0;" width="6" x="759" y="659.4609"/><text fill="#000000" font-family="sans-serif" font-size="14" lengthAdjust="spacing" textLength="135" x="771" y="666.6895">_thatSegment : string</text><rect fill="none" height="6" style="stroke:#C82930;stroke-width:1.0;" width="6" x="759" y="677.0703"/><text fill="#000000" font-family="sans-serif" font-size="14" lengthAdjust="spacing" textLength="142" x="771" y="684.2988">_tempSegment : string</text><line style="stroke:#181818;stroke-width:0.5;" x1="752" x2="1161" y1="691.375" y2="691.375"/><ellipse cx="762" cy="705.6797" fill="#84BE84" rx="3" ry="3" style="stroke:#038048;stroke-width:1.0;"/><text fill="#000000" font-family="sans-serif" font-size="14" lengthAdjust="spacing" textLength="385" x="771" y="709.9082">TranslateVmToAssembly(vmCode: List&lt;string&gt;) : List&lt;string&gt;</text><rect fill="#F24D5C" height="6" style="stroke:#C82930;stroke-width:1.0;" width="6" x="759" y="720.2891"/><text fill="#000000" font-family="sans-serif" font-size="14" lengthAdjust="spacing" textLength="363" x="771" y="727.5176">TranslateCurrentLineToAsmCommands(line: string) : void</text><rect fill="#F24D5C" height="6" style="stroke:#C82930;stroke-width:1.0;" width="6" x="759" y="737.8984"/><text fill="#000000" font-family="sans-serif" font-size="14" lengthAdjust="spacing" textLength="219" x="771" y="745.127">TranslatePush(parts string[]) : void</text><rect fill="#F24D5C" height="6" style="stroke:#C82930;stroke-width:1.0;" width="6" x="759" y="755.5078"/><text fill="#000000" font-family="sans-serif" font-size="14" lengthAdjust="spacing" textLength="142" x="771" y="762.7363">PushDToStack() : void</text><rect fill="#F24D5C" height="6" style="stroke:#C82930;stroke-width:1.0;" width="6" x="759" y="773.1172"/><text fill="#000000" font-family="sans-serif" font-size="14" lengthAdjust="spacing" textLength="220" x="771" y="780.3457">TranslatePop(parts : string[]) : void</text><rect fill="#F24D5C" height="6" style="stroke:#C82930;stroke-width:1.0;" width="6" x="759" y="790.7266"/><text fill="#000000" font-family="sans-serif" font-size="14" lengthAdjust="spacing" textLength="281" x="771" y="797.9551">SegmentToMemory(segment : string) : string</text><rect fill="#F24D5C" height="6" style="stroke:#C82930;stroke-width:1.0;" width="6" x="759" y="808.3359"/><text fill="#000000" font-family="sans-serif" font-size="14" lengthAdjust="spacing" textLength="133" x="771" y="815.5645">TranslateAdd() : void</text><rect fill="#F24D5C" height="6" style="stroke:#C82930;stroke-width:1.0;" width="6" x="759" y="825.9453"/><text fill="#000000" font-family="sans-serif" font-size="14" lengthAdjust="spacing" textLength="133" x="771" y="833.1738">TranslateSub() : void</text><rect fill="#F24D5C" height="6" style="stroke:#C82930;stroke-width:1.0;" width="6" x="759" y="843.5547"/><text fill="#000000" font-family="sans-serif" font-size="14" lengthAdjust="spacing" textLength="133" x="771" y="850.7832">TranslateNeg() : void</text><rect fill="#F24D5C" height="6" style="stroke:#C82930;stroke-width:1.0;" width="6" x="759" y="861.1641"/><text fill="#000000" font-family="sans-serif" font-size="14" lengthAdjust="spacing" textLength="317" x="771" y="868.3926">TranslateComparison(jumpCondition: string) : void</text><rect fill="#F24D5C" height="6" style="stroke:#C82930;stroke-width:1.0;" width="6" x="759" y="878.7734"/><text fill="#000000" font-family="sans-serif" font-size="14" lengthAdjust="spacing" textLength="133" x="771" y="886.002">TranslateAnd() : void</text><rect fill="#F24D5C" height="6" style="stroke:#C82930;stroke-width:1.0;" width="6" x="759" y="896.3828"/><text fill="#000000" font-family="sans-serif" font-size="14" lengthAdjust="spacing" textLength="124" x="771" y="903.6113">TranslateOr() : void</text><rect fill="#F24D5C" height="6" style="stroke:#C82930;stroke-width:1.0;" width="6" x="759" y="913.9922"/><text fill="#000000" font-family="sans-serif" font-size="14" lengthAdjust="spacing" textLength="129" x="771" y="921.2207">TranslateNot() : void</text><rect fill="#F24D5C" height="6" style="stroke:#C82930;stroke-width:1.0;" width="6" x="759" y="931.6016"/><text fill="#000000" font-family="sans-serif" font-size="14" lengthAdjust="spacing" textLength="216" x="771" y="938.8301">Emit(asmInstrctions: string[]) : void</text></g><!--MD5=[259963a7b050a3c8c8e690330ac3f495]
class IFileHandler--><g id="elem_IFileHandler"><rect codeLine="68" fill="#F1F1F1" height="83.2188" id="IFileHandler" rx="2.5" ry="2.5" style="stroke:#181818;stroke-width:0.5;" width="312" x="800.5" y="1098.5"/><ellipse cx="913.75" cy="1114.5" fill="#B4A7E5" rx="11" ry="11" style="stroke:#181818;stroke-width:1.0;"/><path d="M914.7031,1111.1406 L914.7031,1117.7969 L916.4219,1117.7969 Q917.0313,1117.7969 917.2969,1118.0313 Q917.5625,1118.2656 917.5625,1118.6563 Q917.5625,1119.0313 917.2969,1119.2656 Q917.0313,1119.5 916.4219,1119.5 L911.2813,1119.5 Q910.6719,1119.5 910.4063,1119.2656 Q910.1406,1119.0313 910.1406,1118.6406 Q910.1406,1118.2656 910.4063,1118.0313 Q910.6719,1117.7969 911.2813,1117.7969 L913,1117.7969 L913,1111.1406 L911.2813,1111.1406 Q910.6719,1111.1406 910.4063,1110.9063 Q910.1406,1110.6719 910.1406,1110.2813 Q910.1406,1109.9063 910.4063,1109.6719 Q910.6719,1109.4375 911.2813,1109.4375 L916.4219,1109.4375 Q917.0313,1109.4375 917.2969,1109.6719 Q917.5625,1109.9063 917.5625,1110.2813 Q917.5625,1110.6719 917.2969,1110.9063 Q917.0313,1111.1406 916.4219,1111.1406 L914.7031,1111.1406 Z " fill="#000000"/><text fill="#000000" font-family="sans-serif" font-size="14" font-style="italic" lengthAdjust="spacing" textLength="77" x="934.25" y="1120.2285">IFileHandler</text><line style="stroke:#181818;stroke-width:0.5;" x1="801.5" x2="1111.5" y1="1130.5" y2="1130.5"/><line style="stroke:#181818;stroke-width:0.5;" x1="801.5" x2="1111.5" y1="1138.5" y2="1138.5"/><ellipse cx="811.5" cy="1152.8047" fill="#84BE84" rx="3" ry="3" style="stroke:#038048;stroke-width:1.0;"/><text fill="#000000" font-family="sans-serif" font-size="14" lengthAdjust="spacing" textLength="164" x="820.5" y="1157.0332">ReadAllLines(path: string)</text><ellipse cx="811.5" cy="1170.4141" fill="#84BE84" rx="3" ry="3" style="stroke:#038048;stroke-width:1.0;"/><text fill="#000000" font-family="sans-serif" font-size="14" lengthAdjust="spacing" textLength="286" x="820.5" y="1174.6426">SaveAllLines(path: string, result: List&lt;string&gt;)</text></g><!--MD5=[943cecb1226a3fe6fa0bbf1cc5d07918]
class Filehandler--><g id="elem_Filehandler"><rect codeLine="73" fill="#F1F1F1" height="83.2188" id="Filehandler" rx="2.5" ry="2.5" style="stroke:#181818;stroke-width:0.5;" width="312" x="311.5" y="1098.5"/><ellipse cx="427.75" cy="1114.5" fill="#ADD1B2" rx="11" ry="11" style="stroke:#181818;stroke-width:1.0;"/><path d="M430.5156,1110.375 Q430.6719,1110.1563 430.8594,1110.0469 Q431.0469,1109.9375 431.2656,1109.9375 Q431.6406,1109.9375 431.875,1110.2031 Q432.1094,1110.4531 432.1094,1111.0625 L432.1094,1112.5156 Q432.1094,1113.125 431.875,1113.3906 Q431.6406,1113.6563 431.2656,1113.6563 Q430.9219,1113.6563 430.7188,1113.4531 Q430.5156,1113.2656 430.4063,1112.75 Q430.3594,1112.3906 430.1719,1112.2031 Q429.8438,1111.8281 429.2344,1111.6094 Q428.625,1111.3906 428,1111.3906 Q427.2344,1111.3906 426.5938,1111.7188 Q425.9688,1112.0469 425.4688,1112.7969 Q424.9844,1113.5469 424.9844,1114.5781 L424.9844,1115.6719 Q424.9844,1116.9063 425.875,1117.7344 Q426.7656,1118.5469 428.3594,1118.5469 Q429.2969,1118.5469 429.9531,1118.2969 Q430.3438,1118.1406 430.7656,1117.7031 Q431.0313,1117.4375 431.1719,1117.3594 Q431.3281,1117.2813 431.5313,1117.2813 Q431.8594,1117.2813 432.1094,1117.5469 Q432.375,1117.7969 432.375,1118.1406 Q432.375,1118.4844 432.0313,1118.8906 Q431.5313,1119.4688 430.7344,1119.7969 Q429.6563,1120.25 428.3594,1120.25 Q426.8438,1120.25 425.6406,1119.625 Q424.6563,1119.125 423.9688,1118.0625 Q423.2813,1116.9844 423.2813,1115.7031 L423.2813,1114.5469 Q423.2813,1113.2188 423.8906,1112.0781 Q424.5156,1110.9219 425.6094,1110.3125 Q426.7031,1109.6875 427.9375,1109.6875 Q428.6719,1109.6875 429.3125,1109.8594 Q429.9688,1110.0156 430.5156,1110.375 Z " fill="#000000"/><text fill="#000000" font-family="sans-serif" font-size="14" lengthAdjust="spacing" textLength="71" x="448.25" y="1120.2285">Filehandler</text><line style="stroke:#181818;stroke-width:0.5;" x1="312.5" x2="622.5" y1="1130.5" y2="1130.5"/><line style="stroke:#181818;stroke-width:0.5;" x1="312.5" x2="622.5" y1="1138.5" y2="1138.5"/><ellipse cx="322.5" cy="1152.8047" fill="#84BE84" rx="3" ry="3" style="stroke:#038048;stroke-width:1.0;"/><text fill="#000000" font-family="sans-serif" font-size="14" lengthAdjust="spacing" textLength="164" x="331.5" y="1157.0332">ReadAllLines(path: string)</text><ellipse cx="322.5" cy="1170.4141" fill="#84BE84" rx="3" ry="3" style="stroke:#038048;stroke-width:1.0;"/><text fill="#000000" font-family="sans-serif" font-size="14" lengthAdjust="spacing" textLength="286" x="331.5" y="1174.6426">SaveAllLines(path: string, result: List&lt;string&gt;)</text></g><!--MD5=[30930024e26cba6fce3612f2083e4c2a]
class IExecuteTranslator--><g id="elem_IExecuteTranslator"><rect codeLine="80" fill="#F1F1F1" height="65.6094" id="IExecuteTranslator" rx="2.5" ry="2.5" style="stroke:#181818;stroke-width:0.5;" width="151" x="881" y="409"/><ellipse cx="896" cy="425" fill="#B4A7E5" rx="11" ry="11" style="stroke:#181818;stroke-width:1.0;"/><path d="M896.9531,421.6406 L896.9531,428.2969 L898.6719,428.2969 Q899.2813,428.2969 899.5469,428.5313 Q899.8125,428.7656 899.8125,429.1563 Q899.8125,429.5313 899.5469,429.7656 Q899.2813,430 898.6719,430 L893.5313,430 Q892.9219,430 892.6563,429.7656 Q892.3906,429.5313 892.3906,429.1406 Q892.3906,428.7656 892.6563,428.5313 Q892.9219,428.2969 893.5313,428.2969 L895.25,428.2969 L895.25,421.6406 L893.5313,421.6406 Q892.9219,421.6406 892.6563,421.4063 Q892.3906,421.1719 892.3906,420.7813 Q892.3906,420.4063 892.6563,420.1719 Q892.9219,419.9375 893.5313,419.9375 L898.6719,419.9375 Q899.2813,419.9375 899.5469,420.1719 Q899.8125,420.4063 899.8125,420.7813 Q899.8125,421.1719 899.5469,421.4063 Q899.2813,421.6406 898.6719,421.6406 L896.9531,421.6406 Z " fill="#000000"/><text fill="#000000" font-family="sans-serif" font-size="14" font-style="italic" lengthAdjust="spacing" textLength="119" x="910" y="430.7285">IExecuteTranslator</text><line style="stroke:#181818;stroke-width:0.5;" x1="882" x2="1031" y1="441" y2="441"/><line style="stroke:#181818;stroke-width:0.5;" x1="882" x2="1031" y1="449" y2="449"/><ellipse cx="892" cy="463.3047" fill="#84BE84" rx="3" ry="3" style="stroke:#038048;stroke-width:1.0;"/><text fill="#000000" font-family="sans-serif" font-size="14" lengthAdjust="spacing" textLength="107" x="901" y="467.5332">Run(path: string)</text></g><!--MD5=[f42af87c7b23e2a9dd00b9cb8fdf23c7]
class ExecuteTranslator--><g id="elem_ExecuteTranslator"><rect codeLine="84" fill="#F1F1F1" height="100.8281" id="ExecuteTranslator" rx="2.5" ry="2.5" style="stroke:#181818;stroke-width:0.5;" width="182" x="376.5" y="962.5"/><ellipse cx="407.25" cy="978.5" fill="#ADD1B2" rx="11" ry="11" style="stroke:#181818;stroke-width:1.0;"/><path d="M410.0156,974.375 Q410.1719,974.1563 410.3594,974.0469 Q410.5469,973.9375 410.7656,973.9375 Q411.1406,973.9375 411.375,974.2031 Q411.6094,974.4531 411.6094,975.0625 L411.6094,976.5156 Q411.6094,977.125 411.375,977.3906 Q411.1406,977.6563 410.7656,977.6563 Q410.4219,977.6563 410.2188,977.4531 Q410.0156,977.2656 409.9063,976.75 Q409.8594,976.3906 409.6719,976.2031 Q409.3438,975.8281 408.7344,975.6094 Q408.125,975.3906 407.5,975.3906 Q406.7344,975.3906 406.0938,975.7188 Q405.4688,976.0469 404.9688,976.7969 Q404.4844,977.5469 404.4844,978.5781 L404.4844,979.6719 Q404.4844,980.9063 405.375,981.7344 Q406.2656,982.5469 407.8594,982.5469 Q408.7969,982.5469 409.4531,982.2969 Q409.8438,982.1406 410.2656,981.7031 Q410.5313,981.4375 410.6719,981.3594 Q410.8281,981.2813 411.0313,981.2813 Q411.3594,981.2813 411.6094,981.5469 Q411.875,981.7969 411.875,982.1406 Q411.875,982.4844 411.5313,982.8906 Q411.0313,983.4688 410.2344,983.7969 Q409.1563,984.25 407.8594,984.25 Q406.3438,984.25 405.1406,983.625 Q404.1563,983.125 403.4688,982.0625 Q402.7813,980.9844 402.7813,979.7031 L402.7813,978.5469 Q402.7813,977.2188 403.3906,976.0781 Q404.0156,974.9219 405.1094,974.3125 Q406.2031,973.6875 407.4375,973.6875 Q408.1719,973.6875 408.8125,973.8594 Q409.4688,974.0156 410.0156,974.375 Z " fill="#000000"/><text fill="#000000" font-family="sans-serif" font-size="14" lengthAdjust="spacing" textLength="115" x="424.75" y="984.2285">ExecuteTranslator</text><line style="stroke:#181818;stroke-width:0.5;" x1="377.5" x2="557.5" y1="994.5" y2="994.5"/><rect fill="none" height="6" style="stroke:#C82930;stroke-width:1.0;" width="6" x="384.5" y="1005.8047"/><text fill="#000000" font-family="sans-serif" font-size="14" lengthAdjust="spacing" textLength="156" x="396.5" y="1013.0332">_filehandler: IFilehandler</text><rect fill="none" height="6" style="stroke:#C82930;stroke-width:1.0;" width="6" x="384.5" y="1023.4141"/><text fill="#000000" font-family="sans-serif" font-size="14" lengthAdjust="spacing" textLength="142" x="396.5" y="1030.6426">_parsebuilder: IBuilder</text><line style="stroke:#181818;stroke-width:0.5;" x1="377.5" x2="557.5" y1="1037.7188" y2="1037.7188"/><ellipse cx="387.5" cy="1052.0234" fill="#84BE84" rx="3" ry="3" style="stroke:#038048;stroke-width:1.0;"/><text fill="#000000" font-family="sans-serif" font-size="14" lengthAdjust="spacing" textLength="107" x="396.5" y="1056.252">Run(path: string)</text></g><!--MD5=[9f85110d629fb440fb6c5a5c888cbfd2]
reverse link Program to Runner--><g id="link_Program_Runner"><path codeLine="24" d="M197.35,202 C197.35,202 243.83,202 243.83,202 " fill="none" id="Program-backto-Runner" style="stroke:#181818;stroke-width:1.0;"/><polygon fill="#181818" points="184.35,202,190.35,206,196.35,202,190.35,198,184.35,202" style="stroke:#181818;stroke-width:1.0;"/></g><!--MD5=[38abc5c70f7463db3ec045628e9b931d]
link Program to AutofacConfig--><g id="link_Program_AutofacConfig"><path codeLine="25" d="M184.01,243.5 C291.54,243.5 468,243.5 468,243.5 C468,243.5 468,261.81 468,261.81 " fill="none" id="Program-to-AutofacConfig" style="stroke:#181818;stroke-width:1.0;"/><polygon fill="#181818" points="468,266.81,472,257.81,468,261.81,464,257.81,468,266.81" style="stroke:#181818;stroke-width:1.0;"/></g><!--MD5=[5fa53763be7e76d9b35af62eabb2956c]
link ParseHandlerBuilder to IBuilder--><g id="link_ParseHandlerBuilder_IBuilder"><path codeLine="39" d="M629,853.54 C629,912.28 629,1001.25 629,1001.25 C629,1001.25 772.27,1001.25 772.27,1001.25 " fill="none" id="ParseHandlerBuilder-to-IBuilder" style="stroke:#181818;stroke-width:1.0;stroke-dasharray:7.0,7.0;"/><polygon fill="none" points="772.27,994.25,792.27,1001.25,772.27,1008.25,772.27,994.25" style="stroke:#181818;stroke-width:1.0;"/></g><!--MD5=[2c070bb2a899636ab5cc078058b40b8c]
link ParseHandlerBuilder to ParseHandler--><g id="link_ParseHandlerBuilder_ParseHandler"><path codeLine="66" d="M643.69,803 C643.69,803 737.62,803 737.62,803 " fill="none" id="ParseHandlerBuilder-ParseHandler" style="stroke:#181818;stroke-width:1.0;"/><polygon fill="#181818" points="750.62,803,741.62,799,745.62,803,741.62,807,750.62,803" style="stroke:#181818;stroke-width:1.0;"/><line style="stroke:#181818;stroke-width:1.0;" x1="745.62" x2="737.62" y1="803" y2="803"/><polygon fill="none" points="631.69,803,637.69,807,643.69,803,637.69,799,631.69,803" style="stroke:#181818;stroke-width:1.0;"/></g><!--MD5=[ada3d83e79b44623a2a5d6fec1283110]
link Filehandler to IFileHandler--><g id="link_Filehandler_IFileHandler"><path codeLine="78" d="M623.57,1153.83 C623.57,1153.83 780.24,1153.83 780.24,1153.83 " fill="none" id="Filehandler-to-IFileHandler" style="stroke:#181818;stroke-width:1.0;stroke-dasharray:7.0,7.0;"/><polygon fill="none" points="780.24,1146.83,800.24,1153.83,780.24,1160.83,780.24,1146.83" style="stroke:#181818;stroke-width:1.0;"/></g><!--MD5=[5244464f1670add45762bdfd3ce54640]
link ExecuteTranslator to IExecuteTranslator--><g id="link_ExecuteTranslator_IExecuteTranslator"><path codeLine="90" d="M558.67,971.5 C605.15,971.5 652,971.5 652,971.5 C652,971.5 652,453 652,453 C652,453 860.84,453 860.84,453 " fill="none" id="ExecuteTranslator-to-IExecuteTranslator" style="stroke:#181818;stroke-width:1.0;stroke-dasharray:7.0,7.0;"/><polygon fill="none" points="860.84,446,880.84,453,860.84,460,860.84,446" style="stroke:#181818;stroke-width:1.0;"/></g><!--MD5=[3b689e4958054cbde72e330f0b378ca9]
link ExecuteTranslator to IBuilder--><g id="link_ExecuteTranslator_IBuilder"><path codeLine="91" d="M558.62,1022 C558.62,1022 787.13,1022 787.13,1022 " fill="none" id="ExecuteTranslator-to-IBuilder" style="stroke:#181818;stroke-width:1.0;stroke-dasharray:7.0,7.0;"/><polygon fill="#181818" points="792.13,1022,783.13,1018,787.13,1022,783.13,1026,792.13,1022" style="stroke:#181818;stroke-width:1.0;"/></g><!--MD5=[f97c3c065264841b7e0df516b28d914f]
link ExecuteTranslator to IFileHandler--><g id="link_ExecuteTranslator_IFileHandler"><path codeLine="92" d="M558.89,1042.75 C594.53,1042.75 627,1042.75 627,1042.75 C627,1042.75 627,1126.17 627,1126.17 C627,1126.17 795.43,1126.17 795.43,1126.17 " fill="none" id="ExecuteTranslator-to-IFileHandler" style="stroke:#181818;stroke-width:1.0;stroke-dasharray:7.0,7.0;"/><polygon fill="#181818" points="800.43,1126.17,791.43,1122.17,795.43,1126.17,791.43,1130.17,800.43,1126.17" style="stroke:#181818;stroke-width:1.0;"/></g><!--MD5=[fb80be10548802609cfae7d8090f919c]
link Runner to IExecuteTranslator--><g id="link_Runner_IExecuteTranslator"><path codeLine="96" d="M672,231.64 C672,317.59 672,431 672,431 C672,431 875.63,431 875.63,431 " fill="none" id="Runner-to-IExecuteTranslator" style="stroke:#181818;stroke-width:1.0;stroke-dasharray:7.0,7.0;"/><polygon fill="#181818" points="880.63,431,871.63,427,875.63,431,871.63,435,880.63,431" style="stroke:#181818;stroke-width:1.0;"/></g><!--MD5=[e612c5762d4582c98516a35ed468e0a5]
@startuml
skinparam linetype ortho
left to right direction

package Console{
    class Program{
        - container : IContainer
        - app : Runner
    }

    class AutofacConfig {
        + Configure() : IContainer
    }

    class Runner {
        - _container : IContainer
        - _inputfolder: string
        + ExecuteProgram() : void
        - DisplayAvailableVmFiles(vmFiles: string[]) : void
        - TryGetUserSelection(maxIndex: int, out int selectedFileIndex) : bool
        - TranslateVmFile(filepath: string) : void
        - DisplayTranslationCompleteMessage(filePath: string) : void
        - WaitForUserInputToContinue() : void
    }
    Program *- - Runner
    Program - -> AutofacConfig
}

package Domain{
    interface IBuilder {
        + BuildAssemblyCode(vmCode: List<string>): void
        + Build() : List<string>
    }

    class ParseHandlerBuilder {
        - _vmCode: List<string>
        + BuildAssemblyCode(vmCode: List<string>): void
        + Build() : List<string>
    }
    ParseHandlerBuilder ..|> IBuilder
    
    class ParseHandler{
        - _vmCode : List<string>
        - _assemblyCode : List<string>
        - _constantSegment : string
        - _localSegment : string
        - _argumentSegment : string
        - _thisSegment : string
        - _thatSegment : string
        - _tempSegment : string
        + TranslateVmToAssembly(vmCode: List<string>) : List<string>
        - TranslateCurrentLineToAsmCommands(line: string) : void
        - TranslatePush(parts string[]) : void
        - PushDToStack() : void
        - TranslatePop(parts : string[]) : void
        - SegmentToMemory(segment : string) : string
        - TranslateAdd() : void
        - TranslateSub() : void
        - TranslateNeg() : void
        - TranslateComparison(jumpCondition: string) : void
        - TranslateAnd() : void
        - TranslateOr() : void
        - TranslateNot() : void
        - Emit(asmInstrctions: string[]) : void
    }

    ParseHandlerBuilder o- -> ParseHandler

    interface IFileHandler {
        + ReadAllLines(path: string)
        + SaveAllLines(path: string, result: List<string>)
    }

    class Filehandler {
        + ReadAllLines(path: string)
        + SaveAllLines(path: string, result: List<string>)
    }

    Filehandler ..|> IFileHandler

    interface IExecuteTranslator {
        + Run(path: string)
    }

    class ExecuteTranslator {
        - _filehandler: IFilehandler
        - _parsebuilder: IBuilder
        + Run(path: string)
    }

    ExecuteTranslator ..|> IExecuteTranslator
    ExecuteTranslator ..> IBuilder
    ExecuteTranslator ..> IFileHandler

}

Runner ..> IExecuteTranslator

@enduml

PlantUML version 1.2022.7(Mon Aug 22 19:01:30 CEST 2022)
(GPL source distribution)
Java Runtime: OpenJDK Runtime Environment
JVM: OpenJDK 64-Bit Server VM
Default Encoding: Cp1252
Language: en
Country: GB
--></g></svg>